<svg width="1683" height="2472" viewBox="0 0 1683 2472" fill="none" xmlns="http://www.w3.org/2000/svg">
<path d="M856.416 220.013C859.005 220.029 861.591 220.062 864.173 220.11C866.24 220.149 868.305 220.201 870.367 220.261C870.902 220.276 871.437 220.29 871.972 220.307C874.279 220.379 876.582 220.467 878.883 220.565C879.142 220.577 879.4 220.586 879.659 220.598C880.325 220.627 880.99 220.66 881.655 220.691C882.291 220.722 882.927 220.75 883.562 220.782C884.144 220.812 884.725 220.844 885.307 220.875C886.004 220.912 886.702 220.948 887.398 220.987C888.342 221.041 889.286 221.099 890.229 221.157C890.539 221.176 890.85 221.194 891.16 221.214C891.795 221.254 892.429 221.297 893.063 221.339C893.772 221.386 894.481 221.431 895.189 221.48C895.411 221.496 895.633 221.513 895.855 221.528C896.9 221.602 897.945 221.678 898.988 221.757C899.485 221.794 899.981 221.835 900.477 221.874C901.224 221.933 901.971 221.99 902.717 222.051C903.447 222.111 904.176 222.175 904.905 222.237C905.448 222.284 905.991 222.329 906.533 222.377C907.354 222.449 908.174 222.526 908.994 222.602C909.427 222.642 909.86 222.68 910.292 222.721C910.914 222.78 911.536 222.842 912.157 222.902C912.871 222.972 913.585 223.04 914.298 223.112C914.74 223.157 915.181 223.204 915.623 223.25C916.395 223.33 917.167 223.409 917.938 223.492C918.594 223.563 919.25 223.636 919.905 223.709C920.538 223.779 921.171 223.848 921.804 223.92C922.318 223.979 922.832 224.04 923.347 224.1C924.105 224.188 924.863 224.276 925.62 224.367C926.136 224.429 926.651 224.493 927.167 224.557C927.897 224.646 928.628 224.736 929.357 224.828C930.001 224.91 930.644 224.995 931.287 225.078C931.875 225.154 932.463 225.229 933.05 225.307C933.77 225.402 934.49 225.501 935.21 225.6C935.747 225.673 936.283 225.745 936.819 225.819C937.462 225.909 938.104 226.001 938.746 226.093C939.396 226.185 940.046 226.277 940.695 226.372C941.206 226.446 941.716 226.524 942.226 226.6C942.935 226.705 943.644 226.809 944.353 226.917C945.033 227.02 945.713 227.127 946.393 227.232C946.958 227.32 947.524 227.408 948.089 227.497C948.648 227.586 949.206 227.677 949.765 227.767C950.495 227.884 951.224 228.002 951.953 228.122C952.458 228.205 952.962 228.291 953.467 228.376C954.166 228.493 954.865 228.611 955.563 228.73C956.177 228.836 956.79 228.943 957.402 229.05C958.026 229.159 958.649 229.266 959.271 229.377C959.976 229.502 960.681 229.63 961.385 229.758C961.894 229.85 962.403 229.942 962.912 230.036C963.611 230.165 964.308 230.296 965.006 230.427C965.559 230.531 966.113 230.634 966.666 230.739C967.338 230.867 968.009 230.998 968.681 231.128C969.233 231.235 969.786 231.342 970.338 231.451C970.972 231.576 971.605 231.703 972.238 231.83C972.88 231.959 973.523 232.087 974.164 232.218C974.625 232.312 975.085 232.408 975.546 232.503C976.326 232.664 977.105 232.824 977.884 232.988C978.33 233.082 978.775 233.178 979.221 233.272C979.993 233.437 980.765 233.601 981.536 233.769C982.034 233.876 982.53 233.987 983.027 234.096C983.729 234.25 984.431 234.404 985.132 234.561C985.736 234.695 986.339 234.832 986.942 234.969C987.517 235.099 988.093 235.228 988.667 235.36C989.376 235.523 990.085 235.689 990.793 235.854C991.292 235.971 991.79 236.086 992.288 236.204C992.968 236.365 993.647 236.527 994.325 236.689C994.882 236.823 995.438 236.956 995.994 237.091C996.628 237.245 997.261 237.402 997.895 237.558C998.49 237.704 999.085 237.851 999.68 237.999C1000.21 238.132 1000.74 238.265 1001.27 238.399C1001.95 238.571 1002.64 238.744 1003.32 238.918C1003.9 239.069 1004.49 239.222 1005.08 239.374C1005.67 239.526 1006.25 239.677 1006.84 239.831C1007.47 239.998 1008.11 240.167 1008.74 240.336C1009.33 240.493 1009.92 240.65 1010.51 240.809C1011.05 240.954 1011.59 241.101 1012.13 241.248C1012.78 241.426 1013.44 241.605 1014.09 241.785C1014.72 241.959 1015.35 242.134 1015.98 242.31C1016.51 242.459 1017.05 242.609 1017.58 242.76C1018.22 242.939 1018.85 243.12 1019.49 243.302C1020.07 243.469 1020.65 243.637 1021.24 243.806C1021.89 243.993 1022.53 244.182 1023.18 244.372C1023.66 244.513 1024.15 244.654 1024.63 244.796C1025.35 245.009 1026.06 245.223 1026.78 245.438C1027.28 245.589 1027.78 245.739 1028.29 245.891C1028.92 246.082 1029.55 246.276 1030.18 246.47C1030.76 246.647 1031.34 246.826 1031.92 247.005C1032.48 247.176 1033.03 247.349 1033.58 247.521C1034.19 247.713 1034.81 247.906 1035.42 248.1C1036.02 248.289 1036.62 248.48 1037.21 248.671C1037.79 248.855 1038.37 249.039 1038.94 249.225C1039.56 249.425 1040.18 249.627 1040.8 249.83C1041.34 250.004 1041.87 250.179 1042.4 250.354C1043.07 250.574 1043.73 250.796 1044.4 251.018C1044.9 251.183 1045.39 251.348 1045.89 251.515C1046.57 251.743 1047.25 251.974 1047.92 252.205C1048.41 252.37 1048.89 252.536 1049.38 252.702C1050.02 252.922 1050.66 253.143 1051.3 253.365C1051.86 253.559 1052.41 253.753 1052.97 253.948C1053.62 254.175 1054.26 254.403 1054.91 254.632C1055.36 254.792 1055.82 254.954 1056.27 255.115C1057 255.375 1057.72 255.636 1058.45 255.898C1058.89 256.057 1059.33 256.216 1059.76 256.375C1060.45 256.624 1061.13 256.875 1061.81 257.126C1062.33 257.314 1062.84 257.503 1063.35 257.692C1063.99 257.931 1064.63 258.17 1065.27 258.41C1065.74 258.587 1066.22 258.765 1066.69 258.943C1067.34 259.188 1067.98 259.434 1068.63 259.681C1069.22 259.906 1069.81 260.132 1070.39 260.358C1070.88 260.547 1071.37 260.737 1071.86 260.928C1072.5 261.177 1073.14 261.426 1073.78 261.677C1074.34 261.896 1074.9 262.118 1075.46 262.339C1075.99 262.549 1076.52 262.759 1077.05 262.971C1077.7 263.229 1078.35 263.489 1078.99 263.749C1079.47 263.941 1079.95 264.135 1080.42 264.328C1081.07 264.592 1081.72 264.858 1082.37 265.125C1082.9 265.34 1083.42 265.555 1083.94 265.771C1084.49 265.997 1085.03 266.223 1085.58 266.449C1086.16 266.694 1086.75 266.939 1087.33 267.186C1087.94 267.44 1088.54 267.696 1089.15 267.952C1089.65 268.165 1090.15 268.378 1090.65 268.592C1091.25 268.849 1091.85 269.107 1092.45 269.366C1092.99 269.6 1093.53 269.836 1094.07 270.071C1094.62 270.31 1095.17 270.55 1095.72 270.79C1096.34 271.062 1096.96 271.335 1097.58 271.608C1098.07 271.826 1098.56 272.043 1099.05 272.262C1099.63 272.521 1100.21 272.781 1100.79 273.042C1101.32 273.283 1101.86 273.525 1102.4 273.768C1102.99 274.038 1103.59 274.309 1104.18 274.581C1104.68 274.809 1105.18 275.038 1105.68 275.268C1106.31 275.557 1106.94 275.848 1107.56 276.14C1108.06 276.372 1108.56 276.605 1109.06 276.839C1109.63 277.104 1110.2 277.37 1110.76 277.637C1111.33 277.906 1111.9 278.176 1112.47 278.447C1113.01 278.701 1113.54 278.956 1114.07 279.212C1114.59 279.461 1115.11 279.71 1115.63 279.96C1116.26 280.265 1116.89 280.572 1117.52 280.88C1117.99 281.108 1118.46 281.336 1118.93 281.565C1119.5 281.847 1120.07 282.13 1120.65 282.413C1121.2 282.687 1121.76 282.961 1122.31 283.236C1122.84 283.5 1123.37 283.765 1123.89 284.03C1124.47 284.318 1125.04 284.605 1125.61 284.895C1126.1 285.142 1126.59 285.391 1127.08 285.64C1127.69 285.952 1128.3 286.264 1128.92 286.578C1129.39 286.822 1129.86 287.067 1130.34 287.312C1130.92 287.612 1131.5 287.913 1132.08 288.216C1132.61 288.492 1133.14 288.769 1133.67 289.046C1134.2 289.324 1134.73 289.602 1135.26 289.882C1135.8 290.167 1136.33 290.454 1136.87 290.741C1137.43 291.039 1137.99 291.336 1138.55 291.636C1139.07 291.915 1139.59 292.195 1140.11 292.476C1140.63 292.759 1141.16 293.043 1141.68 293.328C1142.23 293.627 1142.78 293.928 1143.33 294.229C1143.87 294.526 1144.41 294.822 1144.95 295.121C1145.46 295.402 1145.97 295.685 1146.48 295.968C1147.02 296.27 1147.57 296.573 1148.11 296.877C1148.63 297.17 1149.15 297.465 1149.68 297.76C1150.2 298.054 1150.72 298.349 1151.24 298.645C1151.78 298.948 1152.31 299.253 1152.85 299.559C1153.38 299.867 1153.92 300.175 1154.46 300.484C1154.97 300.78 1155.49 301.078 1156 301.376C1156.52 301.676 1157.04 301.976 1157.55 302.277C1158.09 302.594 1158.64 302.912 1159.18 303.23C1159.7 303.54 1160.23 303.85 1160.76 304.161C1161.22 304.438 1161.69 304.716 1162.16 304.994C1162.75 305.348 1163.35 305.703 1163.94 306.059C1164.38 306.326 1164.83 306.594 1165.27 306.862C1165.85 307.21 1166.42 307.556 1166.99 307.905C1167.48 308.199 1167.96 308.494 1168.44 308.789C1169.01 309.136 1169.57 309.483 1170.14 309.832C1170.58 310.108 1171.03 310.384 1171.48 310.661C1172.03 311.007 1172.59 311.352 1173.15 311.699C1173.66 312.019 1174.17 312.341 1174.68 312.662C1175.21 312.997 1175.74 313.332 1176.27 313.668C1176.71 313.943 1177.14 314.218 1177.57 314.494C1178.18 314.881 1178.79 315.269 1179.4 315.658C1179.79 315.912 1180.19 316.168 1180.58 316.423C1181.19 316.815 1181.79 317.207 1182.4 317.601C1182.88 317.916 1183.37 318.232 1183.85 318.549C1184.34 318.869 1184.83 319.188 1185.32 319.509C1185.89 319.884 1186.45 320.261 1187.02 320.638C1187.48 320.945 1187.95 321.251 1188.41 321.56C1188.88 321.874 1189.35 322.191 1189.82 322.507C1190.37 322.874 1190.92 323.242 1191.46 323.611C1191.9 323.904 1192.33 324.198 1192.76 324.492C1193.35 324.892 1193.94 325.292 1194.52 325.694C1194.89 325.947 1195.26 326.2 1195.63 326.453C1196.23 326.869 1196.83 327.285 1197.44 327.703C1197.92 328.038 1198.4 328.375 1198.88 328.712C1199.38 329.055 1199.87 329.398 1200.36 329.742C1200.86 330.093 1201.35 330.445 1201.85 330.797C1202.34 331.144 1202.84 331.491 1203.33 331.84C1203.83 332.197 1204.33 332.556 1204.83 332.915C1205.33 333.272 1205.83 333.629 1206.32 333.987C1206.71 334.264 1207.09 334.543 1207.48 334.821C1208.1 335.275 1208.73 335.729 1209.35 336.185C1209.78 336.498 1210.21 336.813 1210.64 337.128C1211.11 337.47 1211.57 337.811 1212.04 338.154C1212.7 338.646 1213.36 339.14 1214.03 339.634C1214.33 339.858 1214.63 340.083 1214.93 340.308C1215.5 340.734 1216.07 341.163 1216.64 341.592C1217.1 341.936 1217.56 342.279 1218.01 342.624C1218.37 342.893 1218.72 343.164 1219.07 343.434C1219.68 343.891 1220.28 344.348 1220.88 344.808C1221.34 345.161 1221.8 345.516 1222.25 345.871C1222.73 346.235 1223.2 346.599 1223.67 346.965C1224.12 347.31 1224.56 347.657 1225 348.004C1225.55 348.43 1226.1 348.857 1226.64 349.285C1226.96 349.537 1227.28 349.79 1227.6 350.042C1228.21 350.523 1228.82 351.004 1229.43 351.487C1229.84 351.817 1230.25 352.15 1230.67 352.48C1231.19 352.899 1231.71 353.317 1232.24 353.737C1232.7 354.109 1233.16 354.483 1233.62 354.855C1234.08 355.231 1234.54 355.606 1235.01 355.982C1235.44 356.333 1235.86 356.685 1236.29 357.036C1236.83 357.479 1237.37 357.921 1237.91 358.365C1238.21 358.609 1238.5 358.854 1238.79 359.099C1239.41 359.607 1240.02 360.115 1240.63 360.625C1241.08 361.002 1241.53 361.381 1241.98 361.76C1242.45 362.153 1242.92 362.546 1243.39 362.941C1243.81 363.293 1244.22 363.648 1244.63 364.001C1245.15 364.44 1245.67 364.879 1246.18 365.319C1246.62 365.697 1247.06 366.076 1247.5 366.455C1247.94 366.835 1248.39 367.213 1248.83 367.594C1249.3 368.003 1249.77 368.414 1250.24 368.824C1250.69 369.215 1251.14 369.606 1251.59 369.998C1252.19 370.53 1252.8 371.065 1253.4 371.6C1253.7 371.859 1253.99 372.116 1254.28 372.376C1255.65 373.586 1257.01 374.803 1258.36 376.025C1259.71 377.243 1261.05 378.464 1262.39 379.693C1262.83 380.096 1263.26 380.501 1263.7 380.905C1264.14 381.314 1264.58 381.722 1265.02 382.132C1265.47 382.543 1265.91 382.957 1266.35 383.369C1266.79 383.788 1267.24 384.206 1267.69 384.627C1268.99 385.847 1270.28 387.075 1271.56 388.307C1272.44 389.153 1273.32 390.002 1274.2 390.854C1275.9 392.501 1277.59 394.16 1279.27 395.827C1280.16 396.707 1281.04 397.59 1281.92 398.476C1282.77 399.33 1283.62 400.187 1284.46 401.046C1286.32 402.934 1288.16 404.833 1290 406.745C1291.1 407.899 1292.2 409.057 1293.3 410.22C1295.35 412.393 1297.38 414.583 1299.4 416.787C1299.82 417.249 1300.25 417.71 1300.67 418.173C1301.9 419.523 1303.12 420.88 1304.33 422.241C1304.7 422.657 1305.07 423.072 1305.45 423.488C1305.77 423.854 1306.09 424.221 1306.42 424.588C1306.92 425.154 1307.42 425.719 1307.92 426.287C1309.09 427.621 1310.25 428.962 1311.41 430.307C1311.8 430.763 1312.2 431.22 1312.59 431.678C1312.98 432.135 1313.37 432.595 1313.77 433.054C1314.14 433.498 1314.52 433.942 1314.9 434.387C1315.3 434.862 1315.7 435.339 1316.1 435.815C1316.51 436.294 1316.91 436.773 1317.31 437.253C1317.62 437.617 1317.92 437.982 1318.22 438.347C1318.68 438.892 1319.13 439.437 1319.58 439.983C1319.97 440.448 1320.35 440.914 1320.73 441.38C1321.11 441.839 1321.49 442.297 1321.86 442.758C1322.34 443.338 1322.81 443.921 1323.28 444.503C1323.56 444.844 1323.83 445.185 1324.11 445.526C1324.51 446.016 1324.9 446.509 1325.29 447C1325.68 447.482 1326.07 447.963 1326.45 448.446C1326.81 448.896 1327.17 449.348 1327.52 449.799C1327.9 450.28 1328.29 450.761 1328.67 451.243C1328.98 451.643 1329.29 452.045 1329.61 452.445C1330.07 453.031 1330.53 453.615 1330.98 454.202C1331.29 454.594 1331.59 454.987 1331.89 455.38C1332.29 455.892 1332.68 456.403 1333.08 456.916C1333.47 457.423 1333.86 457.931 1334.24 458.438C1334.61 458.923 1334.98 459.408 1335.35 459.894C1335.7 460.359 1336.06 460.826 1336.41 461.292C1336.75 461.745 1337.09 462.198 1337.43 462.652C1337.93 463.314 1338.42 463.978 1338.92 464.642C1339.14 464.944 1339.37 465.246 1339.59 465.549C1339.97 466.066 1340.35 466.585 1340.74 467.104C1341.09 467.586 1341.45 468.068 1341.8 468.552C1342.16 469.043 1342.52 469.536 1342.88 470.029C1343.22 470.509 1343.57 470.987 1343.92 471.468C1344.35 472.07 1344.79 472.675 1345.22 473.279C1345.47 473.634 1345.73 473.988 1345.98 474.344C1346.41 474.949 1346.84 475.557 1347.27 476.164C1347.55 476.558 1347.83 476.952 1348.11 477.347C1348.47 477.861 1348.83 478.378 1349.19 478.894C1349.51 479.351 1349.83 479.809 1350.15 480.268C1350.6 480.907 1351.04 481.549 1351.48 482.19C1351.73 482.553 1351.98 482.915 1352.23 483.278C1352.59 483.803 1352.95 484.329 1353.31 484.855C1353.64 485.348 1353.98 485.841 1354.32 486.335C1354.71 486.924 1355.11 487.515 1355.51 488.105C1355.77 488.489 1356.03 488.873 1356.28 489.258C1356.69 489.86 1357.09 490.464 1357.49 491.068C1357.77 491.492 1358.05 491.916 1358.33 492.341C1358.67 492.859 1359.01 493.379 1359.35 493.898C1359.67 494.373 1359.98 494.847 1360.29 495.322C1360.64 495.86 1360.99 496.399 1361.33 496.938C1361.65 497.43 1361.97 497.923 1362.29 498.417C1362.71 499.068 1363.13 499.721 1363.54 500.374C1363.75 500.708 1363.97 501.041 1364.18 501.375C1364.54 501.939 1364.89 502.505 1365.25 503.07C1365.57 503.577 1365.89 504.085 1366.21 504.593C1366.52 505.085 1366.82 505.579 1367.13 506.072C1367.48 506.631 1367.83 507.191 1368.17 507.751C1368.47 508.24 1368.77 508.731 1369.08 509.221C1369.39 509.73 1369.7 510.238 1370.01 510.748C1370.33 511.272 1370.65 511.798 1370.97 512.323C1371.28 512.843 1371.6 513.363 1371.91 513.884C1372.23 514.41 1372.54 514.936 1372.85 515.463C1373.16 515.967 1373.46 516.471 1373.75 516.976C1374.05 517.479 1374.35 517.984 1374.65 518.488C1374.99 519.076 1375.34 519.663 1375.69 520.252C1375.97 520.74 1376.25 521.23 1376.54 521.719C1376.84 522.228 1377.13 522.738 1377.43 523.249C1377.74 523.794 1378.05 524.339 1378.37 524.885C1378.64 525.372 1378.92 525.859 1379.2 526.347C1379.56 526.975 1379.91 527.605 1380.27 528.235C1380.52 528.679 1380.77 529.124 1381.02 529.568C1381.32 530.108 1381.63 530.649 1381.93 531.19C1382.24 531.744 1382.54 532.298 1382.85 532.854C1383.13 533.361 1383.41 533.869 1383.69 534.377C1383.97 534.888 1384.25 535.399 1384.53 535.91C1384.83 536.465 1385.13 537.02 1385.43 537.575C1385.73 538.129 1386.03 538.683 1386.33 539.238C1386.61 539.753 1386.88 540.269 1387.16 540.785C1387.46 541.346 1387.76 541.906 1388.05 542.468C1388.33 542.979 1388.59 543.49 1388.86 544.002C1389.16 544.563 1389.45 545.125 1389.75 545.688C1390.01 546.197 1390.28 546.707 1390.54 547.217C1390.84 547.8 1391.15 548.383 1391.45 548.967C1391.7 549.467 1391.96 549.968 1392.21 550.47C1392.51 551.043 1392.8 551.618 1393.09 552.192C1393.35 552.698 1393.6 553.203 1393.86 553.709C1394.16 554.32 1394.47 554.932 1394.78 555.544C1395 555.994 1395.22 556.445 1395.45 556.896C1395.75 557.503 1396.05 558.11 1396.35 558.718C1396.6 559.24 1396.86 559.763 1397.11 560.286C1397.39 560.857 1397.67 561.428 1397.95 561.999C1398.2 562.524 1398.45 563.049 1398.71 563.575C1398.98 564.141 1399.25 564.706 1399.52 565.272C1399.8 565.859 1400.08 566.446 1400.35 567.034C1400.57 567.496 1400.79 567.958 1401.01 568.42C1401.33 569.105 1401.65 569.79 1401.97 570.477C1402.17 570.91 1402.37 571.344 1402.57 571.778C1402.84 572.355 1403.1 572.933 1403.37 573.511C1403.61 574.047 1403.86 574.583 1404.1 575.12C1404.41 575.8 1404.72 576.481 1405.02 577.162C1405.2 577.559 1405.38 577.956 1405.56 578.353C1405.83 578.964 1406.11 579.576 1406.38 580.188C1406.62 580.742 1406.87 581.296 1407.11 581.851C1407.36 582.414 1407.61 582.978 1407.85 583.543C1408.11 584.126 1408.36 584.709 1408.61 585.293C1408.86 585.872 1409.11 586.451 1409.36 587.031C1409.57 587.533 1409.79 588.034 1410 588.536C1410.28 589.176 1410.55 589.817 1410.82 590.458C1411.03 590.97 1411.25 591.482 1411.46 591.995C1411.69 592.554 1411.93 593.113 1412.16 593.673C1412.4 594.251 1412.64 594.829 1412.88 595.407C1413.12 595.996 1413.36 596.585 1413.6 597.175C1413.82 597.715 1414.04 598.256 1414.25 598.797C1414.49 599.376 1414.72 599.955 1414.95 600.535C1415.17 601.063 1415.38 601.591 1415.59 602.12C1415.83 602.731 1416.07 603.342 1416.31 603.954C1416.53 604.502 1416.74 605.05 1416.95 605.599C1417.2 606.242 1417.45 606.886 1417.7 607.53C1417.87 607.974 1418.04 608.418 1418.21 608.862C1418.48 609.556 1418.74 610.25 1419.01 610.945C1419.21 611.469 1419.4 611.993 1419.6 612.518C1419.81 613.081 1420.02 613.645 1420.23 614.21C1420.44 614.767 1420.65 615.325 1420.85 615.883C1421.1 616.541 1421.34 617.2 1421.58 617.859C1421.76 618.361 1421.94 618.864 1422.12 619.366C1422.34 619.976 1422.56 620.586 1422.78 621.196C1422.99 621.778 1423.2 622.359 1423.4 622.941C1423.6 623.499 1423.8 624.057 1424 624.615C1424.22 625.242 1424.43 625.869 1424.65 626.496C1424.84 627.032 1425.02 627.567 1425.21 628.104C1425.42 628.709 1425.62 629.315 1425.83 629.922C1426.02 630.481 1426.21 631.041 1426.4 631.601C1426.6 632.19 1426.8 632.781 1426.99 633.371C1427.2 633.998 1427.41 634.626 1427.62 635.254C1427.78 635.735 1427.94 636.217 1428.09 636.699C1428.33 637.429 1428.57 638.159 1428.81 638.891C1428.94 639.308 1429.08 639.726 1429.21 640.145C1429.43 640.832 1429.65 641.52 1429.87 642.209C1430.05 642.762 1430.22 643.315 1430.39 643.869C1430.59 644.504 1430.79 645.139 1430.99 645.774C1431.17 646.361 1431.35 646.949 1431.53 647.537C1431.7 648.102 1431.88 648.666 1432.05 649.231C1432.23 649.826 1432.41 650.422 1432.59 651.018C1432.76 651.607 1432.94 652.196 1433.12 652.786C1433.29 653.381 1433.47 653.976 1433.64 654.571C1433.82 655.182 1434 655.794 1434.18 656.405C1434.32 656.911 1434.47 657.418 1434.61 657.924C1434.8 658.59 1434.99 659.255 1435.18 659.922C1435.36 660.554 1435.54 661.187 1435.72 661.819C1435.87 662.359 1436.02 662.898 1436.17 663.438C1436.35 664.098 1436.53 664.758 1436.71 665.418C1436.87 665.994 1437.03 666.57 1437.18 667.147C1437.33 667.688 1437.47 668.23 1437.62 668.771C1437.8 669.475 1437.99 670.178 1438.18 670.883C1438.3 671.345 1438.42 671.808 1438.54 672.271C1438.72 672.986 1438.91 673.701 1439.09 674.417C1439.24 674.974 1439.38 675.532 1439.52 676.09C1439.68 676.716 1439.84 677.343 1439.99 677.97C1440.12 678.47 1440.24 678.972 1440.37 679.473C1440.55 680.212 1440.73 680.951 1440.91 681.691C1441.05 682.246 1441.18 682.801 1441.31 683.356C1441.46 683.963 1441.6 684.57 1441.75 685.178C1441.9 685.82 1442.05 686.463 1442.2 687.106C1442.33 687.678 1442.47 688.249 1442.6 688.82C1442.75 689.469 1442.89 690.119 1443.04 690.769C1443.17 691.352 1443.31 691.935 1443.44 692.52C1443.55 693.046 1443.67 693.573 1443.79 694.1C1443.94 694.792 1444.09 695.484 1444.24 696.178C1444.35 696.656 1444.45 697.135 1444.55 697.614C1444.72 698.387 1444.88 699.16 1445.05 699.934C1445.16 700.484 1445.27 701.035 1445.39 701.586C1445.52 702.215 1445.65 702.845 1445.78 703.475C1445.9 704.051 1446.01 704.628 1446.13 705.205C1446.27 705.907 1446.41 706.609 1446.55 707.312C1446.64 707.775 1446.73 708.238 1446.82 708.701C1446.96 709.431 1447.11 710.162 1447.25 710.893C1447.34 711.373 1447.43 711.854 1447.52 712.335C1447.67 713.129 1447.82 713.924 1447.96 714.72C1448.05 715.185 1448.13 715.651 1448.22 716.116C1448.35 716.864 1448.49 717.611 1448.62 718.359C1448.72 718.905 1448.81 719.452 1448.91 719.998C1449.03 720.683 1449.15 721.368 1449.27 722.054C1449.35 722.562 1449.44 723.07 1449.53 723.578C1449.65 724.338 1449.78 725.098 1449.91 725.858C1449.98 726.312 1450.06 726.766 1450.13 727.22C1450.25 727.968 1450.37 728.716 1450.49 729.465C1450.58 729.992 1450.66 730.519 1450.74 731.047C1450.85 731.789 1450.97 732.531 1451.08 733.273C1451.18 733.882 1451.27 734.491 1451.36 735.101C1451.45 735.696 1451.54 736.292 1451.62 736.889C1451.72 737.531 1451.81 738.173 1451.9 738.815C1451.99 739.433 1452.08 740.051 1452.16 740.67C1452.23 741.162 1452.3 741.654 1452.37 742.146C1452.47 742.917 1452.58 743.688 1452.68 744.459C1452.74 744.882 1452.79 745.305 1452.85 745.728C1452.96 746.618 1453.08 747.509 1453.19 748.401C1453.22 748.648 1453.25 748.896 1453.28 749.143C1453.41 750.143 1453.53 751.144 1453.65 752.146C1453.7 752.52 1453.74 752.894 1453.79 753.269C1453.88 754.098 1453.98 754.928 1454.08 755.759C1454.14 756.331 1454.2 756.904 1454.27 757.477C1454.35 758.202 1454.43 758.929 1454.51 759.655C1454.55 760.081 1454.6 760.506 1454.64 760.932C1454.73 761.766 1454.82 762.6 1454.9 763.435C1454.94 763.839 1454.98 764.244 1455.02 764.649C1455.11 765.527 1455.2 766.404 1455.28 767.282C1455.31 767.644 1455.35 768.007 1455.38 768.369C1455.46 769.238 1455.54 770.107 1455.62 770.978C1455.67 771.517 1455.71 772.057 1455.76 772.598C1455.82 773.344 1455.89 774.091 1455.95 774.838C1456 775.492 1456.05 776.148 1456.1 776.803C1456.15 777.39 1456.2 777.976 1456.24 778.563C1456.39 780.508 1456.53 782.456 1456.66 784.406C1456.78 786.308 1456.9 788.212 1457.01 790.118C1457.05 790.784 1457.08 791.451 1457.12 792.118C1457.15 792.735 1457.18 793.352 1457.22 793.969C1457.25 794.553 1457.27 795.137 1457.3 795.722C1457.33 796.423 1457.37 797.125 1457.4 797.827C1457.49 799.903 1457.57 801.981 1457.64 804.062C1457.75 807.149 1457.83 810.241 1457.89 813.339C1457.94 815.918 1457.97 818.5 1457.99 821.087C1458 822.39 1458 823.695 1458 825C1458 981.727 1398.35 1124.53 1300.51 1232C1300.56 1232.06 1300.62 1232.12 1300.67 1232.18C1301.9 1233.53 1303.12 1234.88 1304.33 1236.24C1304.7 1236.66 1305.07 1237.07 1305.45 1237.49C1305.77 1237.85 1306.09 1238.22 1306.42 1238.59C1306.92 1239.15 1307.42 1239.72 1307.92 1240.29C1309.09 1241.62 1310.25 1242.96 1311.41 1244.31C1311.8 1244.76 1312.2 1245.22 1312.59 1245.68C1312.98 1246.14 1313.37 1246.59 1313.77 1247.05C1314.14 1247.5 1314.52 1247.94 1314.9 1248.39C1315.3 1248.86 1315.7 1249.34 1316.1 1249.82C1316.51 1250.29 1316.91 1250.77 1317.31 1251.25C1317.62 1251.62 1317.92 1251.98 1318.22 1252.35C1318.68 1252.89 1319.13 1253.44 1319.58 1253.98C1319.97 1254.45 1320.35 1254.91 1320.73 1255.38C1321.11 1255.84 1321.49 1256.3 1321.86 1256.76C1322.34 1257.34 1322.81 1257.92 1323.28 1258.5C1323.56 1258.84 1323.83 1259.18 1324.11 1259.53C1324.51 1260.02 1324.9 1260.51 1325.29 1261C1325.68 1261.48 1326.07 1261.96 1326.45 1262.45C1326.81 1262.9 1327.17 1263.35 1327.52 1263.8C1327.9 1264.28 1328.29 1264.76 1328.67 1265.24C1328.98 1265.64 1329.29 1266.04 1329.61 1266.45C1330.07 1267.03 1330.53 1267.62 1330.98 1268.2C1331.29 1268.59 1331.59 1268.99 1331.89 1269.38C1332.29 1269.89 1332.68 1270.4 1333.08 1270.92C1333.47 1271.42 1333.86 1271.93 1334.24 1272.44C1334.61 1272.92 1334.98 1273.41 1335.35 1273.89C1335.7 1274.36 1336.06 1274.83 1336.41 1275.29C1336.75 1275.75 1337.09 1276.2 1337.43 1276.65C1337.93 1277.31 1338.42 1277.98 1338.92 1278.64C1339.14 1278.94 1339.37 1279.25 1339.59 1279.55C1339.97 1280.07 1340.35 1280.58 1340.74 1281.1C1341.09 1281.59 1341.45 1282.07 1341.8 1282.55C1342.16 1283.04 1342.52 1283.54 1342.88 1284.03C1343.22 1284.51 1343.57 1284.99 1343.92 1285.47C1344.35 1286.07 1344.79 1286.67 1345.22 1287.28C1345.47 1287.63 1345.73 1287.99 1345.98 1288.34C1346.41 1288.95 1346.84 1289.56 1347.27 1290.16C1347.55 1290.56 1347.83 1290.95 1348.11 1291.35C1348.47 1291.86 1348.83 1292.38 1349.19 1292.89C1349.51 1293.35 1349.83 1293.81 1350.15 1294.27C1350.6 1294.91 1351.04 1295.55 1351.48 1296.19C1351.73 1296.55 1351.98 1296.92 1352.23 1297.28C1352.59 1297.8 1352.95 1298.33 1353.31 1298.86C1353.64 1299.35 1353.98 1299.84 1354.32 1300.33C1354.71 1300.92 1355.11 1301.51 1355.51 1302.11C1355.77 1302.49 1356.03 1302.87 1356.28 1303.26C1356.69 1303.86 1357.09 1304.46 1357.49 1305.07C1357.77 1305.49 1358.05 1305.92 1358.33 1306.34C1358.67 1306.86 1359.01 1307.38 1359.35 1307.9C1359.67 1308.37 1359.98 1308.85 1360.29 1309.32C1360.64 1309.86 1360.99 1310.4 1361.33 1310.94C1361.65 1311.43 1361.97 1311.92 1362.29 1312.42C1362.71 1313.07 1363.13 1313.72 1363.54 1314.37C1363.75 1314.71 1363.97 1315.04 1364.18 1315.38C1364.54 1315.94 1364.89 1316.5 1365.25 1317.07C1365.57 1317.58 1365.89 1318.08 1366.21 1318.59C1366.52 1319.09 1366.82 1319.58 1367.13 1320.07C1367.48 1320.63 1367.83 1321.19 1368.17 1321.75C1368.47 1322.24 1368.77 1322.73 1369.08 1323.22C1369.39 1323.73 1369.7 1324.24 1370.01 1324.75C1370.33 1325.27 1370.65 1325.8 1370.97 1326.32C1371.28 1326.84 1371.6 1327.36 1371.91 1327.88C1372.23 1328.41 1372.54 1328.94 1372.85 1329.46C1373.16 1329.97 1373.46 1330.47 1373.75 1330.98C1374.05 1331.48 1374.35 1331.98 1374.65 1332.49C1374.99 1333.08 1375.34 1333.66 1375.69 1334.25C1375.97 1334.74 1376.25 1335.23 1376.54 1335.72C1376.84 1336.23 1377.13 1336.74 1377.43 1337.25C1377.74 1337.79 1378.05 1338.34 1378.37 1338.88C1378.64 1339.37 1378.92 1339.86 1379.2 1340.35C1379.56 1340.98 1379.91 1341.61 1380.27 1342.24C1380.52 1342.68 1380.77 1343.12 1381.02 1343.57C1381.32 1344.11 1381.63 1344.65 1381.93 1345.19C1382.24 1345.74 1382.54 1346.3 1382.85 1346.85C1383.13 1347.36 1383.41 1347.87 1383.69 1348.38C1383.97 1348.89 1384.25 1349.4 1384.53 1349.91C1384.83 1350.46 1385.13 1351.02 1385.43 1351.58C1385.73 1352.13 1386.03 1352.68 1386.33 1353.24C1386.61 1353.75 1386.88 1354.27 1387.16 1354.79C1387.46 1355.35 1387.76 1355.91 1388.05 1356.47C1388.33 1356.98 1388.59 1357.49 1388.86 1358C1389.16 1358.56 1389.45 1359.13 1389.75 1359.69C1390.01 1360.2 1390.28 1360.71 1390.54 1361.22C1390.84 1361.8 1391.15 1362.38 1391.45 1362.97C1391.7 1363.47 1391.96 1363.97 1392.21 1364.47C1392.51 1365.04 1392.8 1365.62 1393.09 1366.19C1393.35 1366.7 1393.6 1367.2 1393.86 1367.71C1394.16 1368.32 1394.47 1368.93 1394.78 1369.54C1395 1369.99 1395.22 1370.45 1395.45 1370.9C1395.75 1371.5 1396.05 1372.11 1396.35 1372.72C1396.6 1373.24 1396.86 1373.76 1397.11 1374.29C1397.39 1374.86 1397.67 1375.43 1397.95 1376C1398.2 1376.52 1398.45 1377.05 1398.71 1377.58C1398.98 1378.14 1399.25 1378.71 1399.52 1379.27C1399.8 1379.86 1400.08 1380.45 1400.35 1381.03C1400.57 1381.5 1400.79 1381.96 1401.01 1382.42C1401.33 1383.1 1401.65 1383.79 1401.97 1384.48C1402.17 1384.91 1402.37 1385.34 1402.57 1385.78C1402.84 1386.36 1403.1 1386.93 1403.37 1387.51C1403.61 1388.05 1403.86 1388.58 1404.1 1389.12C1404.41 1389.8 1404.72 1390.48 1405.02 1391.16C1405.2 1391.56 1405.38 1391.96 1405.56 1392.35C1405.83 1392.96 1406.11 1393.58 1406.38 1394.19C1406.62 1394.74 1406.87 1395.3 1407.11 1395.85C1407.36 1396.41 1407.61 1396.98 1407.85 1397.54C1408.11 1398.13 1408.36 1398.71 1408.61 1399.29C1408.86 1399.87 1409.11 1400.45 1409.36 1401.03C1409.57 1401.53 1409.79 1402.03 1410 1402.54C1410.28 1403.18 1410.55 1403.82 1410.82 1404.46C1411.03 1404.97 1411.25 1405.48 1411.46 1406C1411.69 1406.55 1411.93 1407.11 1412.16 1407.67C1412.4 1408.25 1412.64 1408.83 1412.88 1409.41C1413.12 1410 1413.36 1410.59 1413.6 1411.17C1413.82 1411.72 1414.04 1412.26 1414.25 1412.8C1414.49 1413.38 1414.72 1413.96 1414.95 1414.54C1415.17 1415.06 1415.38 1415.59 1415.59 1416.12C1415.83 1416.73 1416.07 1417.34 1416.31 1417.95C1416.53 1418.5 1416.74 1419.05 1416.95 1419.6C1417.2 1420.24 1417.45 1420.89 1417.7 1421.53C1417.87 1421.97 1418.04 1422.42 1418.21 1422.86C1418.48 1423.56 1418.74 1424.25 1419.01 1424.95C1419.21 1425.47 1419.4 1425.99 1419.6 1426.52C1419.81 1427.08 1420.02 1427.65 1420.23 1428.21C1420.44 1428.77 1420.65 1429.32 1420.85 1429.88C1421.1 1430.54 1421.34 1431.2 1421.58 1431.86C1421.76 1432.36 1421.94 1432.86 1422.12 1433.37C1422.34 1433.98 1422.56 1434.59 1422.78 1435.2C1422.99 1435.78 1423.2 1436.36 1423.4 1436.94C1423.6 1437.5 1423.8 1438.06 1424 1438.62C1424.22 1439.24 1424.43 1439.87 1424.65 1440.5C1424.84 1441.03 1425.02 1441.57 1425.21 1442.1C1425.42 1442.71 1425.62 1443.32 1425.83 1443.92C1426.02 1444.48 1426.21 1445.04 1426.4 1445.6C1426.6 1446.19 1426.8 1446.78 1426.99 1447.37C1427.2 1448 1427.41 1448.63 1427.62 1449.25C1427.78 1449.74 1427.94 1450.22 1428.09 1450.7C1428.33 1451.43 1428.57 1452.16 1428.81 1452.89C1428.94 1453.31 1429.08 1453.73 1429.21 1454.14C1429.43 1454.83 1429.65 1455.52 1429.87 1456.21C1430.05 1456.76 1430.22 1457.32 1430.39 1457.87C1430.59 1458.5 1430.79 1459.14 1430.99 1459.77C1431.17 1460.36 1431.35 1460.95 1431.53 1461.54C1431.7 1462.1 1431.88 1462.67 1432.05 1463.23C1432.23 1463.83 1432.41 1464.42 1432.59 1465.02C1432.76 1465.61 1432.94 1466.2 1433.12 1466.79C1433.29 1467.38 1433.47 1467.98 1433.64 1468.57C1433.82 1469.18 1434 1469.79 1434.18 1470.41C1434.32 1470.91 1434.47 1471.42 1434.61 1471.92C1434.8 1472.59 1434.99 1473.26 1435.18 1473.92C1435.36 1474.55 1435.54 1475.19 1435.72 1475.82C1435.87 1476.36 1436.02 1476.9 1436.17 1477.44C1436.35 1478.1 1436.53 1478.76 1436.71 1479.42C1436.87 1479.99 1437.03 1480.57 1437.18 1481.15C1437.33 1481.69 1437.47 1482.23 1437.62 1482.77C1437.8 1483.47 1437.99 1484.18 1438.18 1484.88C1438.3 1485.35 1438.42 1485.81 1438.54 1486.27C1438.72 1486.99 1438.91 1487.7 1439.09 1488.42C1439.24 1488.97 1439.38 1489.53 1439.52 1490.09C1439.68 1490.72 1439.84 1491.34 1439.99 1491.97C1440.12 1492.47 1440.24 1492.97 1440.37 1493.47C1440.55 1494.21 1440.73 1494.95 1440.91 1495.69C1441.05 1496.25 1441.18 1496.8 1441.31 1497.36C1441.46 1497.96 1441.6 1498.57 1441.75 1499.18C1441.9 1499.82 1442.05 1500.46 1442.2 1501.11C1442.33 1501.68 1442.47 1502.25 1442.6 1502.82C1442.75 1503.47 1442.89 1504.12 1443.04 1504.77C1443.17 1505.35 1443.31 1505.94 1443.44 1506.52C1443.55 1507.05 1443.67 1507.57 1443.79 1508.1C1443.94 1508.79 1444.09 1509.48 1444.24 1510.18C1444.35 1510.66 1444.45 1511.14 1444.55 1511.61C1444.72 1512.39 1444.88 1513.16 1445.05 1513.93C1445.16 1514.48 1445.27 1515.04 1445.39 1515.59C1445.52 1516.22 1445.65 1516.84 1445.78 1517.47C1445.9 1518.05 1446.01 1518.63 1446.13 1519.21C1446.27 1519.91 1446.41 1520.61 1446.55 1521.31C1446.64 1521.77 1446.73 1522.24 1446.82 1522.7C1446.96 1523.43 1447.11 1524.16 1447.25 1524.89C1447.34 1525.37 1447.43 1525.85 1447.52 1526.33C1447.67 1527.13 1447.82 1527.92 1447.96 1528.72C1448.05 1529.18 1448.13 1529.65 1448.22 1530.12C1448.35 1530.86 1448.49 1531.61 1448.62 1532.36C1448.72 1532.91 1448.81 1533.45 1448.91 1534C1449.03 1534.68 1449.15 1535.37 1449.27 1536.05C1449.35 1536.56 1449.44 1537.07 1449.53 1537.58C1449.65 1538.34 1449.78 1539.1 1449.91 1539.86C1449.98 1540.31 1450.06 1540.77 1450.13 1541.22C1450.25 1541.97 1450.37 1542.72 1450.49 1543.46C1450.58 1543.99 1450.66 1544.52 1450.74 1545.05C1450.85 1545.79 1450.97 1546.53 1451.08 1547.27C1451.18 1547.88 1451.27 1548.49 1451.36 1549.1C1451.45 1549.7 1451.54 1550.29 1451.62 1550.89C1451.72 1551.53 1451.81 1552.17 1451.9 1552.82C1451.99 1553.43 1452.08 1554.05 1452.16 1554.67C1452.23 1555.16 1452.3 1555.65 1452.37 1556.15C1452.47 1556.92 1452.58 1557.69 1452.68 1558.46C1452.74 1558.88 1452.79 1559.3 1452.85 1559.73C1452.96 1560.62 1453.08 1561.51 1453.19 1562.4C1453.22 1562.65 1453.25 1562.9 1453.28 1563.14C1453.41 1564.14 1453.53 1565.14 1453.65 1566.15C1453.7 1566.52 1453.74 1566.89 1453.79 1567.27C1453.88 1568.1 1453.98 1568.93 1454.08 1569.76C1454.14 1570.33 1454.2 1570.9 1454.27 1571.48C1454.35 1572.2 1454.43 1572.93 1454.51 1573.66C1454.55 1574.08 1454.6 1574.51 1454.64 1574.93C1454.73 1575.77 1454.82 1576.6 1454.9 1577.43C1454.94 1577.84 1454.98 1578.24 1455.02 1578.65C1455.11 1579.53 1455.2 1580.4 1455.28 1581.28C1455.31 1581.64 1455.35 1582.01 1455.38 1582.37C1455.46 1583.24 1455.54 1584.11 1455.62 1584.98C1455.67 1585.52 1455.71 1586.06 1455.76 1586.6C1455.82 1587.34 1455.89 1588.09 1455.95 1588.84C1456 1589.49 1456.05 1590.15 1456.1 1590.8C1456.15 1591.39 1456.2 1591.98 1456.24 1592.56C1456.39 1594.51 1456.53 1596.46 1456.66 1598.41C1456.78 1600.31 1456.9 1602.21 1457.01 1604.12C1457.05 1604.78 1457.08 1605.45 1457.12 1606.12C1457.15 1606.73 1457.18 1607.35 1457.22 1607.97C1457.25 1608.55 1457.27 1609.14 1457.3 1609.72C1457.33 1610.42 1457.37 1611.12 1457.4 1611.83C1457.49 1613.9 1457.57 1615.98 1457.64 1618.06C1457.75 1621.15 1457.83 1624.24 1457.89 1627.34C1457.94 1629.92 1457.97 1632.5 1457.99 1635.09C1458 1636.39 1458 1637.69 1458 1639C1458 1851.75 1348.1 2038.85 1181.92 2146.71C1179.88 2148.03 1177.84 2149.35 1175.78 2150.65C1171.67 2153.24 1167.52 2155.8 1163.35 2158.3C1161.26 2159.55 1159.16 2160.79 1157.06 2162.01C1154.95 2163.24 1152.84 2164.45 1150.72 2165.66C1148.59 2166.86 1146.47 2168.05 1144.33 2169.22C1142.19 2170.4 1140.05 2171.57 1137.89 2172.72C1135.74 2173.87 1133.58 2175.01 1131.41 2176.13C1120.57 2181.77 1109.54 2187.08 1098.33 2192.06L1094.96 2193.55C1093.83 2194.04 1092.71 2194.53 1091.58 2195.01C1076.91 2201.32 1061.94 2207.06 1046.7 2212.21C1042.01 2213.8 1037.3 2215.33 1032.56 2216.8C1029 2217.9 1025.43 2218.98 1021.85 2220.02C1019.46 2220.71 1017.07 2221.39 1014.67 2222.06C1006.26 2224.39 997.789 2226.54 989.244 2228.51C986.803 2229.07 984.356 2229.62 981.903 2230.15C980.677 2230.42 979.45 2230.68 978.221 2230.94C975.763 2231.46 973.299 2231.96 970.83 2232.45C967.127 2233.19 963.411 2233.89 959.684 2234.55C957.199 2234.99 954.708 2235.42 952.213 2235.83C938.489 2238.11 924.608 2239.92 910.589 2241.25C908.04 2241.49 905.486 2241.72 902.928 2241.93C886.3 2243.3 869.482 2244 852.5 2244L848.584 2243.99C847.28 2243.98 845.976 2243.97 844.674 2243.95C515.174 2239.78 249.102 1972.64 247.013 1642.91L247 1639C247 1637.7 247.003 1636.39 247.012 1635.09C247.16 1611.68 248.639 1588.58 251.378 1565.87C251.438 1565.37 251.501 1564.87 251.562 1564.37C251.81 1562.36 252.065 1560.36 252.332 1558.36C252.481 1557.24 252.634 1556.12 252.789 1555.01C252.808 1554.87 252.826 1554.73 252.846 1554.59C252.93 1553.99 253.017 1553.39 253.103 1552.79C253.206 1552.07 253.308 1551.35 253.414 1550.62C253.464 1550.28 253.516 1549.94 253.566 1549.6C253.695 1548.73 253.824 1547.86 253.956 1547C254.017 1546.6 254.079 1546.2 254.141 1545.81C254.465 1543.71 254.798 1541.62 255.144 1539.53C255.236 1538.97 255.332 1538.41 255.427 1537.85C255.542 1537.17 255.656 1536.49 255.773 1535.8C255.862 1535.29 255.953 1534.77 256.043 1534.26C256.172 1533.52 256.299 1532.79 256.431 1532.05C256.499 1531.67 256.569 1531.29 256.638 1530.91C257.018 1528.8 257.408 1526.7 257.81 1524.6C257.895 1524.15 257.983 1523.71 258.069 1523.26C258.218 1522.5 258.366 1521.73 258.518 1520.96C258.617 1520.46 258.72 1519.96 258.82 1519.46C258.969 1518.72 259.117 1517.97 259.269 1517.23C259.355 1516.81 259.445 1516.38 259.533 1515.96C259.701 1515.15 259.867 1514.34 260.038 1513.53C260.121 1513.14 260.205 1512.75 260.288 1512.36C260.464 1511.54 260.639 1510.71 260.817 1509.89C260.937 1509.34 261.061 1508.79 261.183 1508.24C261.327 1507.58 261.471 1506.92 261.618 1506.27C261.723 1505.8 261.83 1505.33 261.937 1504.86C262.115 1504.07 262.293 1503.29 262.474 1502.5C262.562 1502.12 262.653 1501.74 262.742 1501.35C262.93 1500.54 263.119 1499.73 263.311 1498.93C263.419 1498.47 263.531 1498.01 263.641 1497.55C263.827 1496.78 264.012 1496 264.201 1495.23C264.289 1494.87 264.379 1494.51 264.468 1494.15C264.677 1493.3 264.887 1492.44 265.1 1491.59C265.189 1491.24 265.281 1490.88 265.371 1490.52C265.585 1489.67 265.798 1488.83 266.016 1487.98C266.125 1487.56 266.236 1487.13 266.347 1486.71C266.546 1485.94 266.745 1485.17 266.947 1484.41C267.083 1483.89 267.223 1483.37 267.36 1482.86C267.538 1482.19 267.715 1481.52 267.895 1480.86C268.044 1480.31 268.197 1479.75 268.348 1479.2C268.531 1478.53 268.713 1477.86 268.898 1477.19C269.036 1476.7 269.175 1476.2 269.313 1475.71C269.504 1475.03 269.695 1474.35 269.888 1473.67C270.027 1473.17 270.169 1472.68 270.31 1472.19C270.522 1471.45 270.733 1470.71 270.948 1469.97C271.068 1469.56 271.191 1469.14 271.312 1468.73C271.528 1467.99 271.743 1467.26 271.962 1466.52C272.109 1466.03 272.257 1465.53 272.405 1465.04C272.629 1464.3 272.852 1463.55 273.078 1462.81C273.174 1462.49 273.272 1462.18 273.368 1461.86C273.626 1461.02 273.884 1460.18 274.146 1459.34C274.279 1458.91 274.415 1458.48 274.549 1458.05C274.791 1457.28 275.034 1456.5 275.279 1455.73C275.39 1455.38 275.503 1455.03 275.614 1454.68C275.87 1453.88 276.125 1453.09 276.384 1452.29C276.543 1451.8 276.704 1451.31 276.864 1450.82C277.092 1450.12 277.32 1449.43 277.551 1448.73C277.687 1448.32 277.825 1447.91 277.963 1447.5C278.22 1446.73 278.477 1445.96 278.737 1445.19C278.874 1444.79 279.011 1444.38 279.148 1443.98C279.401 1443.24 279.653 1442.5 279.908 1441.76C280.086 1441.24 280.265 1440.73 280.444 1440.22C280.673 1439.56 280.901 1438.9 281.132 1438.25C281.289 1437.8 281.447 1437.36 281.605 1436.91C281.863 1436.18 282.121 1435.46 282.381 1434.73C282.543 1434.28 282.707 1433.83 282.87 1433.38C283.119 1432.69 283.368 1432 283.619 1431.31C283.807 1430.8 283.997 1430.29 284.186 1429.78C284.426 1429.13 284.667 1428.47 284.909 1427.82C285.099 1427.31 285.29 1426.81 285.481 1426.3C285.713 1425.68 285.945 1425.06 286.179 1424.45C286.373 1423.94 286.569 1423.43 286.765 1422.92C287.029 1422.23 287.292 1421.54 287.559 1420.85C287.749 1420.36 287.942 1419.86 288.134 1419.37C288.355 1418.8 288.576 1418.24 288.799 1417.67C289.053 1417.02 289.31 1416.38 289.566 1415.74C289.79 1415.17 290.012 1414.61 290.237 1414.05C290.393 1413.66 290.551 1413.27 290.708 1412.88C291.022 1412.11 291.337 1411.33 291.654 1410.55C291.815 1410.16 291.977 1409.77 292.138 1409.38C292.426 1408.67 292.715 1407.97 293.006 1407.27C293.192 1406.82 293.379 1406.38 293.565 1405.93C293.867 1405.21 294.168 1404.49 294.473 1403.77C294.62 1403.42 294.769 1403.07 294.917 1402.72C295.247 1401.95 295.578 1401.17 295.911 1400.39C296.074 1400.02 296.239 1399.64 296.402 1399.26C296.722 1398.52 297.043 1397.78 297.365 1397.04C297.568 1396.58 297.771 1396.12 297.975 1395.66C298.237 1395.06 298.5 1394.46 298.765 1393.87C299.024 1393.28 299.286 1392.7 299.547 1392.12C299.805 1391.54 300.063 1390.96 300.323 1390.39C300.615 1389.74 300.909 1389.1 301.203 1388.45C301.405 1388.01 301.605 1387.57 301.808 1387.13C302.051 1386.6 302.295 1386.07 302.54 1385.54C302.821 1384.93 303.103 1384.32 303.386 1383.71C303.612 1383.23 303.841 1382.75 304.068 1382.26C304.351 1381.66 304.633 1381.06 304.917 1380.46C305.147 1379.97 305.378 1379.49 305.609 1379C305.92 1378.35 306.231 1377.7 306.544 1377.05C306.754 1376.61 306.965 1376.18 307.176 1375.74C307.486 1375.1 307.798 1374.46 308.11 1373.82C308.341 1373.35 308.573 1372.88 308.805 1372.41C309.121 1371.77 309.437 1371.12 309.756 1370.48C309.961 1370.07 310.167 1369.66 310.373 1369.25C310.717 1368.56 311.061 1367.87 311.407 1367.18C311.615 1366.77 311.823 1366.36 312.031 1365.95C312.36 1365.3 312.689 1364.65 313.021 1364C313.271 1363.52 313.523 1363.03 313.774 1362.54C314.087 1361.93 314.401 1361.32 314.716 1360.72C314.95 1360.27 315.186 1359.82 315.421 1359.37C315.741 1358.75 316.06 1358.14 316.382 1357.53C316.685 1356.96 316.99 1356.38 317.295 1355.81C317.547 1355.34 317.797 1354.86 318.05 1354.39C318.336 1353.85 318.624 1353.32 318.912 1352.79C319.236 1352.18 319.56 1351.58 319.886 1350.98C320.097 1350.59 320.31 1350.2 320.522 1349.81C320.881 1349.16 321.239 1348.5 321.6 1347.85C321.895 1347.31 322.193 1346.77 322.49 1346.24C322.753 1345.76 323.015 1345.29 323.279 1344.81C323.604 1344.23 323.932 1343.65 324.259 1343.07C324.555 1342.54 324.849 1342.02 325.146 1341.49C325.445 1340.97 325.746 1340.44 326.046 1339.91C326.341 1339.4 326.636 1338.88 326.933 1338.36C327.199 1337.9 327.467 1337.43 327.735 1336.97C328.104 1336.33 328.472 1335.69 328.843 1335.06C329.052 1334.7 329.263 1334.34 329.473 1333.98C329.876 1333.29 330.28 1332.6 330.686 1331.92C330.91 1331.54 331.137 1331.16 331.362 1330.78C331.755 1330.12 332.149 1329.45 332.544 1328.79C332.821 1328.33 333.1 1327.87 333.378 1327.41C333.705 1326.87 334.032 1326.32 334.36 1325.78C334.677 1325.26 334.995 1324.74 335.313 1324.22C335.61 1323.73 335.905 1323.25 336.203 1322.76C336.541 1322.21 336.88 1321.67 337.22 1321.12C337.533 1320.61 337.846 1320.11 338.16 1319.6C338.461 1319.12 338.764 1318.64 339.066 1318.16C339.431 1317.57 339.796 1316.99 340.163 1316.41C340.421 1316.01 340.679 1315.6 340.938 1315.19C341.318 1314.59 341.699 1313.99 342.081 1313.4C342.389 1312.92 342.699 1312.43 343.009 1311.95C343.333 1311.45 343.658 1310.95 343.984 1310.44C344.345 1309.89 344.707 1309.33 345.069 1308.78C345.374 1308.31 345.679 1307.84 345.985 1307.38C346.298 1306.9 346.612 1306.43 346.927 1305.95C347.324 1305.35 347.722 1304.75 348.121 1304.15C348.353 1303.8 348.586 1303.45 348.818 1303.11C349.245 1302.47 349.672 1301.83 350.101 1301.2C350.407 1300.74 350.715 1300.29 351.023 1299.84C351.369 1299.33 351.714 1298.82 352.061 1298.31C352.412 1297.8 352.764 1297.29 353.116 1296.77C353.451 1296.29 353.785 1295.8 354.121 1295.32C354.449 1294.84 354.778 1294.37 355.107 1293.9C355.515 1293.31 355.923 1292.73 356.332 1292.14C356.583 1291.78 356.835 1291.43 357.087 1291.07C357.532 1290.44 357.976 1289.81 358.423 1289.18C358.662 1288.84 358.901 1288.51 359.141 1288.17C359.609 1287.52 360.078 1286.86 360.549 1286.21C360.813 1285.84 361.078 1285.47 361.343 1285.11C361.755 1284.54 362.166 1283.97 362.58 1283.4C362.879 1282.99 363.179 1282.58 363.479 1282.17C363.935 1281.55 364.393 1280.92 364.853 1280.3C365.113 1279.95 365.374 1279.6 365.635 1279.25C366.031 1278.71 366.428 1278.18 366.826 1277.64C367.181 1277.17 367.536 1276.69 367.892 1276.22C368.315 1275.66 368.739 1275.09 369.165 1274.53C369.429 1274.18 369.693 1273.83 369.957 1273.49C370.41 1272.89 370.863 1272.3 371.318 1271.7C371.616 1271.31 371.914 1270.92 372.213 1270.54C372.645 1269.98 373.078 1269.41 373.512 1268.85C373.842 1268.43 374.173 1268 374.505 1267.58C374.895 1267.08 375.286 1266.58 375.678 1266.08C376.033 1265.62 376.39 1265.17 376.746 1264.72C377.182 1264.17 377.619 1263.61 378.058 1263.06C378.314 1262.74 378.57 1262.42 378.827 1262.1C379.318 1261.48 379.811 1260.87 380.305 1260.25C380.645 1259.83 380.986 1259.41 381.327 1258.99C381.677 1258.55 382.027 1258.12 382.378 1257.69C382.806 1257.16 383.236 1256.64 383.666 1256.11C384.041 1255.65 384.417 1255.2 384.794 1254.74C385.157 1254.3 385.522 1253.86 385.887 1253.42C386.28 1252.94 386.673 1252.47 387.067 1252C387.472 1251.51 387.877 1251.03 388.282 1250.54C388.656 1250.1 389.03 1249.65 389.404 1249.21C389.76 1248.79 390.117 1248.37 390.475 1247.95C390.969 1247.36 391.464 1246.78 391.961 1246.2C392.208 1245.91 392.455 1245.62 392.702 1245.33C393.185 1244.77 393.669 1244.21 394.154 1243.65C394.561 1243.18 394.969 1242.71 395.378 1242.24C395.727 1241.84 396.076 1241.44 396.427 1241.04C396.854 1240.55 397.283 1240.06 397.712 1239.57C398.125 1239.1 398.539 1238.63 398.953 1238.17C399.299 1237.78 399.645 1237.39 399.992 1237C400.442 1236.49 400.892 1235.99 401.344 1235.48C401.737 1235.05 402.132 1234.61 402.526 1234.17C402.926 1233.73 403.327 1233.28 403.729 1232.84C403.983 1232.56 404.236 1232.28 404.491 1232C307.459 1125.43 247.996 984.103 247.013 828.912L247 825C247 823.695 247.003 822.391 247.012 821.088C247.16 797.676 248.639 774.579 251.378 751.869C251.438 751.37 251.501 750.872 251.562 750.373C251.81 748.365 252.065 746.359 252.332 744.357C252.481 743.24 252.634 742.124 252.789 741.009C252.808 740.871 252.826 740.733 252.846 740.595C252.93 739.992 253.017 739.391 253.103 738.789C253.206 738.067 253.308 737.345 253.414 736.624C253.464 736.283 253.516 735.943 253.566 735.603C253.695 734.734 253.824 733.865 253.956 732.997C254.017 732.601 254.079 732.205 254.141 731.809C254.465 729.713 254.798 727.621 255.144 725.533C255.236 724.972 255.332 724.412 255.427 723.852C255.542 723.169 255.656 722.486 255.773 721.804C255.862 721.289 255.953 720.775 256.043 720.261C256.172 719.525 256.299 718.789 256.431 718.054C256.499 717.672 256.569 717.29 256.638 716.908C257.018 714.802 257.408 712.699 257.81 710.6C257.895 710.154 257.983 709.71 258.069 709.265C258.218 708.497 258.366 707.729 258.518 706.963C258.617 706.461 258.72 705.96 258.82 705.458C258.969 704.716 259.117 703.973 259.269 703.231C259.355 702.807 259.445 702.383 259.533 701.958C259.701 701.148 259.867 700.339 260.038 699.53C260.121 699.139 260.205 698.749 260.288 698.358C260.464 697.535 260.639 696.712 260.817 695.89C260.937 695.338 261.061 694.787 261.183 694.235C261.327 693.579 261.471 692.924 261.618 692.269C261.723 691.799 261.83 691.33 261.937 690.86C262.115 690.074 262.293 689.289 262.474 688.504C262.562 688.12 262.653 687.736 262.742 687.352C262.93 686.543 263.119 685.735 263.311 684.928C263.419 684.469 263.531 684.012 263.641 683.554C263.827 682.777 264.012 682.001 264.201 681.226C264.289 680.866 264.379 680.506 264.468 680.146C264.677 679.295 264.887 678.444 265.1 677.594C265.189 677.235 265.281 676.878 265.371 676.52C265.585 675.673 265.798 674.827 266.016 673.982C266.125 673.557 266.236 673.133 266.347 672.708C266.546 671.94 266.745 671.172 266.947 670.405C267.083 669.889 267.223 669.373 267.36 668.857C267.538 668.191 267.715 667.525 267.895 666.859C268.044 666.306 268.197 665.754 268.348 665.201C268.531 664.532 268.713 663.863 268.898 663.194C269.036 662.699 269.175 662.204 269.313 661.709C269.504 661.027 269.695 660.346 269.888 659.665C270.027 659.173 270.169 658.682 270.31 658.19C270.522 657.449 270.733 656.709 270.948 655.969C271.068 655.556 271.191 655.145 271.312 654.732C271.528 653.995 271.743 653.258 271.962 652.521C272.109 652.028 272.257 651.534 272.405 651.041C272.629 650.296 272.852 649.551 273.078 648.808C273.174 648.492 273.272 648.177 273.368 647.862C273.626 647.02 273.884 646.178 274.146 645.337C274.279 644.908 274.415 644.481 274.549 644.053C274.791 643.278 275.034 642.504 275.279 641.731C275.39 641.382 275.503 641.033 275.614 640.684C275.87 639.885 276.125 639.086 276.384 638.289C276.543 637.8 276.704 637.311 276.864 636.822C277.092 636.125 277.32 635.428 277.551 634.731C277.687 634.319 277.825 633.908 277.963 633.496C278.22 632.726 278.477 631.957 278.737 631.188C278.874 630.786 279.011 630.384 279.148 629.981C279.401 629.24 279.653 628.499 279.908 627.759C280.086 627.244 280.265 626.73 280.444 626.216C280.673 625.56 280.901 624.904 281.132 624.249C281.289 623.802 281.447 623.356 281.605 622.91C281.863 622.184 282.121 621.458 282.381 620.732C282.543 620.281 282.707 619.83 282.87 619.379C283.119 618.69 283.368 618.002 283.619 617.314C283.807 616.802 283.997 616.29 284.186 615.777C284.426 615.126 284.667 614.474 284.909 613.823C285.099 613.315 285.29 612.807 285.481 612.299C285.713 611.682 285.945 611.064 286.179 610.448C286.373 609.937 286.569 609.427 286.765 608.916C287.029 608.226 287.292 607.537 287.559 606.849C287.749 606.356 287.942 605.864 288.134 605.372C288.355 604.805 288.576 604.237 288.799 603.671C289.053 603.025 289.31 602.38 289.566 601.735C289.79 601.174 290.012 600.612 290.237 600.051C290.393 599.662 290.551 599.273 290.708 598.885C291.022 598.106 291.337 597.328 291.654 596.551C291.815 596.158 291.977 595.767 292.138 595.375C292.426 594.673 292.715 593.971 293.006 593.271C293.192 592.823 293.379 592.376 293.565 591.93C293.867 591.209 294.168 590.488 294.473 589.769C294.62 589.42 294.769 589.072 294.917 588.724C295.247 587.947 295.578 587.17 295.911 586.395C296.074 586.016 296.239 585.638 296.402 585.26C296.722 584.52 297.043 583.781 297.365 583.043C297.568 582.58 297.771 582.118 297.975 581.655C298.237 581.059 298.5 580.462 298.765 579.866C299.024 579.282 299.286 578.699 299.547 578.116C299.805 577.539 300.063 576.963 300.323 576.387C300.615 575.741 300.909 575.097 301.203 574.452C301.405 574.01 301.605 573.567 301.808 573.126C302.051 572.596 302.295 572.067 302.54 571.538C302.821 570.93 303.103 570.322 303.386 569.715C303.612 569.23 303.841 568.745 304.068 568.261C304.351 567.66 304.633 567.059 304.917 566.459C305.147 565.973 305.378 565.488 305.609 565.003C305.92 564.352 306.231 563.701 306.544 563.051C306.754 562.615 306.965 562.18 307.176 561.744C307.486 561.103 307.798 560.462 308.11 559.822C308.341 559.35 308.573 558.879 308.805 558.408C309.121 557.766 309.438 557.124 309.756 556.482C309.961 556.07 310.167 555.657 310.373 555.245C310.717 554.556 311.061 553.868 311.407 553.181C311.615 552.77 311.823 552.359 312.031 551.948C312.36 551.3 312.689 550.652 313.021 550.005C313.271 549.515 313.523 549.027 313.774 548.538C314.087 547.93 314.401 547.323 314.716 546.717C314.95 546.266 315.186 545.816 315.421 545.365C315.741 544.753 316.06 544.142 316.382 543.531C316.685 542.957 316.99 542.384 317.295 541.811C317.547 541.337 317.797 540.862 318.05 540.389C318.336 539.853 318.624 539.319 318.912 538.785C319.236 538.183 319.56 537.581 319.886 536.98C320.097 536.591 320.31 536.202 320.522 535.812C320.881 535.156 321.239 534.5 321.6 533.846C321.895 533.309 322.193 532.773 322.49 532.237C322.753 531.763 323.015 531.288 323.279 530.814C323.604 530.232 323.932 529.651 324.259 529.069C324.555 528.543 324.849 528.017 325.146 527.492C325.445 526.965 325.746 526.44 326.046 525.914C326.341 525.397 326.636 524.879 326.933 524.362C327.199 523.898 327.467 523.434 327.735 522.97C328.104 522.332 328.472 521.695 328.843 521.059C329.052 520.699 329.263 520.34 329.473 519.981C329.876 519.293 330.28 518.604 330.686 517.917C330.91 517.537 331.137 517.157 331.362 516.777C331.755 516.116 332.149 515.454 332.544 514.794C332.821 514.331 333.1 513.87 333.378 513.408C333.705 512.865 334.032 512.322 334.36 511.78C334.677 511.259 334.995 510.738 335.313 510.218C335.61 509.733 335.905 509.247 336.203 508.763C336.541 508.213 336.88 507.665 337.22 507.117C337.533 506.612 337.846 506.107 338.16 505.603C338.461 505.12 338.764 504.638 339.066 504.156C339.431 503.575 339.796 502.993 340.163 502.413C340.421 502.005 340.679 501.598 340.938 501.19C341.318 500.592 341.699 499.994 342.081 499.396C342.389 498.915 342.699 498.435 343.009 497.954C343.333 497.45 343.658 496.946 343.984 496.443C344.345 495.887 344.707 495.332 345.069 494.777C345.374 494.311 345.679 493.845 345.985 493.379C346.298 492.902 346.612 492.427 346.927 491.951C347.324 491.35 347.722 490.75 348.121 490.15C348.353 489.802 348.586 489.454 348.818 489.106C349.245 488.47 349.672 487.833 350.101 487.198C350.407 486.744 350.715 486.29 351.023 485.836C351.369 485.327 351.714 484.819 352.061 484.312C352.412 483.798 352.764 483.285 353.116 482.772C353.451 482.286 353.785 481.801 354.121 481.315C354.449 480.842 354.778 480.368 355.107 479.896C355.515 479.31 355.923 478.725 356.332 478.142C356.583 477.784 356.835 477.428 357.087 477.071C357.532 476.44 357.976 475.81 358.423 475.181C358.662 474.845 358.901 474.509 359.141 474.174C359.609 473.517 360.078 472.861 360.549 472.207C360.813 471.84 361.078 471.475 361.343 471.108C361.755 470.539 362.166 469.969 362.58 469.4C362.879 468.99 363.179 468.58 363.479 468.171C363.935 467.547 364.393 466.924 364.853 466.302C365.113 465.949 365.374 465.597 365.635 465.245C366.031 464.711 366.428 464.177 366.826 463.644C367.181 463.169 367.536 462.694 367.892 462.221C368.315 461.657 368.739 461.093 369.165 460.53C369.429 460.182 369.693 459.834 369.957 459.486C370.41 458.89 370.863 458.295 371.318 457.701C371.616 457.313 371.914 456.925 372.213 456.537C372.645 455.976 373.078 455.414 373.512 454.854C373.842 454.428 374.173 454.003 374.505 453.578C374.895 453.077 375.286 452.576 375.678 452.076C376.033 451.623 376.39 451.172 376.746 450.72C377.182 450.167 377.619 449.615 378.058 449.063C378.314 448.741 378.57 448.419 378.827 448.097C379.318 447.481 379.811 446.867 380.305 446.253C380.645 445.83 380.986 445.407 381.327 444.985C381.677 444.553 382.027 444.121 382.378 443.689C382.806 443.163 383.236 442.637 383.666 442.112C384.041 441.654 384.417 441.196 384.794 440.738C385.157 440.297 385.522 439.857 385.887 439.417C386.28 438.943 386.673 438.469 387.067 437.996C387.472 437.511 387.877 437.027 388.282 436.544C388.656 436.099 389.03 435.654 389.404 435.21C389.76 434.788 390.117 434.366 390.475 433.945C390.969 433.363 391.464 432.781 391.961 432.2C392.208 431.912 392.455 431.623 392.702 431.335C393.185 430.772 393.669 430.21 394.154 429.649C394.561 429.179 394.969 428.709 395.378 428.239C395.727 427.838 396.076 427.437 396.427 427.036C396.854 426.547 397.283 426.06 397.712 425.572C398.125 425.103 398.539 424.635 398.953 424.167C399.299 423.777 399.645 423.387 399.992 422.998C400.442 422.493 400.892 421.988 401.344 421.484C401.737 421.046 402.132 420.608 402.526 420.17C402.926 419.726 403.327 419.283 403.729 418.841C404.121 418.408 404.514 417.976 404.907 417.545C405.351 417.058 405.796 416.572 406.241 416.087C406.596 415.701 406.951 415.315 407.307 414.93C407.766 414.432 408.226 413.936 408.687 413.44C409.07 413.028 409.454 412.615 409.839 412.203C410.267 411.745 410.696 411.289 411.125 410.832C411.532 410.399 411.939 409.967 412.348 409.535C412.767 409.092 413.185 408.65 413.605 408.208C413.988 407.806 414.372 407.404 414.756 407.003C415.244 406.492 415.734 405.983 416.225 405.474C416.576 405.109 416.927 404.745 417.279 404.382C417.755 403.89 418.232 403.399 418.71 402.909C419.048 402.562 419.387 402.215 419.727 401.868C420.253 401.331 420.78 400.794 421.309 400.259C421.658 399.904 422.009 399.55 422.359 399.196C422.808 398.744 423.257 398.293 423.707 397.843C424.134 397.415 424.562 396.987 424.99 396.561C425.417 396.135 425.844 395.71 426.272 395.286C426.725 394.838 427.178 394.391 427.632 393.944C428.01 393.572 428.389 393.201 428.768 392.83C429.243 392.365 429.719 391.9 430.196 391.436C430.628 391.016 431.06 390.597 431.493 390.179C431.883 389.802 432.272 389.425 432.663 389.05C433.171 388.561 433.681 388.074 434.19 387.587C434.571 387.223 434.951 386.86 435.333 386.497C435.759 386.092 436.186 385.689 436.613 385.285C437.126 384.801 437.638 384.318 438.152 383.836C438.516 383.495 438.88 383.154 439.245 382.813C439.714 382.376 440.184 381.939 440.654 381.503C441.102 381.088 441.55 380.673 441.999 380.259C442.46 379.834 442.921 379.41 443.383 378.987C443.813 378.593 444.244 378.2 444.676 377.807C445.088 377.431 445.501 377.055 445.914 376.681C446.41 376.232 446.906 375.783 447.403 375.336C447.851 374.933 448.3 374.531 448.749 374.129C449.177 373.746 449.605 373.364 450.034 372.982C450.467 372.597 450.901 372.213 451.335 371.829C451.839 371.383 452.343 370.938 452.849 370.494C453.271 370.123 453.694 369.753 454.117 369.383C454.595 368.966 455.074 368.55 455.553 368.134C455.96 367.78 456.366 367.427 456.774 367.074C457.321 366.602 457.869 366.132 458.417 365.662C458.773 365.357 459.13 365.052 459.486 364.747C459.999 364.31 460.512 363.872 461.026 363.437C461.487 363.046 461.948 362.657 462.409 362.269C462.89 361.864 463.371 361.46 463.853 361.057C464.268 360.709 464.684 360.362 465.1 360.016C465.592 359.606 466.085 359.196 466.578 358.788C467.034 358.411 467.49 358.035 467.946 357.659C468.421 357.269 468.897 356.879 469.373 356.49C469.829 356.117 470.286 355.744 470.743 355.372C471.288 354.93 471.834 354.489 472.38 354.049C472.723 353.772 473.066 353.496 473.409 353.22C473.985 352.757 474.561 352.296 475.139 351.836C475.551 351.507 475.964 351.178 476.378 350.85C476.86 350.467 477.344 350.085 477.827 349.704C478.343 349.298 478.86 348.892 479.377 348.487C479.793 348.162 480.21 347.836 480.627 347.512C481.114 347.132 481.602 346.753 482.091 346.375C482.618 345.967 483.147 345.56 483.676 345.153C484.117 344.814 484.559 344.475 485.002 344.137C485.483 343.769 485.965 343.402 486.447 343.036C486.929 342.671 487.41 342.306 487.893 341.941C488.427 341.538 488.962 341.136 489.498 340.734C489.888 340.442 490.277 340.15 490.668 339.858C491.272 339.408 491.877 338.959 492.482 338.511C492.863 338.229 493.243 337.948 493.624 337.668C494.169 337.267 494.715 336.866 495.262 336.467C495.732 336.123 496.202 335.78 496.673 335.438C497.124 335.11 497.575 334.783 498.027 334.456C498.595 334.046 499.163 333.636 499.732 333.228C500.133 332.94 500.535 332.654 500.937 332.367C501.481 331.979 502.025 331.591 502.57 331.204C503.1 330.828 503.632 330.454 504.163 330.08C504.637 329.747 505.11 329.414 505.585 329.082C506.073 328.741 506.561 328.4 507.05 328.06C507.548 327.713 508.047 327.368 508.546 327.023C509.103 326.638 509.662 326.254 510.221 325.871C510.607 325.606 510.993 325.34 511.381 325.075C511.93 324.701 512.479 324.328 513.029 323.955C513.564 323.593 514.098 323.232 514.634 322.871C515.057 322.586 515.481 322.302 515.905 322.019C516.452 321.653 516.999 321.287 517.547 320.923C518.109 320.549 518.671 320.177 519.234 319.806C519.658 319.526 520.083 319.247 520.508 318.968C521.129 318.56 521.751 318.154 522.374 317.748C522.759 317.498 523.143 317.248 523.528 316.998C524.136 316.605 524.744 316.212 525.353 315.82C525.78 315.546 526.208 315.271 526.636 314.997C527.221 314.623 527.808 314.25 528.396 313.878C528.812 313.614 529.228 313.349 529.645 313.086C530.231 312.716 530.819 312.348 531.406 311.98C531.901 311.671 532.396 311.36 532.892 311.052C533.416 310.725 533.943 310.401 534.469 310.076C534.978 309.761 535.487 309.446 535.997 309.133C536.49 308.83 536.984 308.529 537.479 308.228C537.995 307.912 538.512 307.597 539.03 307.283C539.586 306.947 540.142 306.611 540.699 306.276C541.184 305.985 541.668 305.694 542.153 305.404C542.699 305.078 543.245 304.754 543.792 304.43C544.309 304.123 544.827 303.816 545.345 303.511C545.879 303.196 546.413 302.882 546.948 302.569C547.424 302.291 547.9 302.013 548.377 301.735C548.997 301.375 549.618 301.017 550.239 300.658C550.671 300.409 551.101 300.16 551.533 299.912C552.176 299.544 552.82 299.177 553.464 298.811C553.871 298.579 554.277 298.348 554.685 298.118C555.353 297.74 556.022 297.364 556.692 296.988C557.065 296.779 557.437 296.57 557.811 296.362C558.5 295.978 559.19 295.596 559.881 295.214C560.293 294.986 560.705 294.758 561.118 294.531C561.682 294.222 562.246 293.914 562.811 293.606C563.329 293.324 563.848 293.04 564.367 292.759C564.949 292.444 565.531 292.131 566.114 291.817C566.583 291.565 567.052 291.312 567.521 291.062C568.117 290.743 568.714 290.427 569.311 290.111C569.836 289.833 570.361 289.555 570.888 289.278C571.357 289.031 571.828 288.787 572.298 288.541C572.934 288.208 573.571 287.875 574.209 287.545C574.673 287.305 575.138 287.065 575.603 286.826C576.157 286.541 576.711 286.255 577.267 285.972C577.908 285.644 578.551 285.319 579.194 284.993C579.627 284.774 580.06 284.554 580.493 284.336C581.186 283.987 581.879 283.641 582.573 283.295C582.951 283.106 583.329 282.917 583.708 282.729C584.472 282.351 585.237 281.975 586.003 281.6C586.322 281.443 586.641 281.285 586.961 281.129C587.666 280.785 588.372 280.442 589.079 280.101C589.52 279.887 589.961 279.674 590.402 279.462C591.008 279.171 591.614 278.883 592.221 278.594C592.728 278.352 593.235 278.109 593.743 277.869C594.361 277.577 594.98 277.287 595.6 276.997C596.062 276.78 596.524 276.562 596.987 276.347C597.598 276.062 598.209 275.78 598.82 275.498C599.374 275.242 599.928 274.987 600.483 274.732C600.938 274.524 601.393 274.317 601.849 274.11C602.51 273.809 603.172 273.509 603.835 273.21C604.432 272.941 605.029 272.674 605.627 272.407C606.07 272.209 606.512 272.01 606.956 271.813C607.702 271.483 608.449 271.155 609.196 270.827C609.597 270.651 609.997 270.475 610.397 270.3C611.099 269.994 611.802 269.69 612.505 269.387C612.921 269.207 613.336 269.026 613.752 268.848C614.443 268.551 615.134 268.258 615.826 267.964C616.265 267.777 616.704 267.59 617.144 267.404C617.81 267.123 618.478 266.845 619.146 266.566C619.641 266.359 620.137 266.151 620.634 265.945C621.188 265.715 621.744 265.488 622.299 265.26C622.885 265.019 623.471 264.777 624.059 264.538C624.645 264.299 625.232 264.063 625.818 263.826C626.365 263.606 626.911 263.384 627.458 263.165C628.103 262.907 628.749 262.651 629.396 262.395C629.853 262.213 630.31 262.032 630.768 261.852C631.532 261.551 632.297 261.254 633.062 260.956C633.439 260.81 633.815 260.662 634.191 260.517C634.832 260.269 635.473 260.025 636.114 259.779C636.681 259.563 637.248 259.345 637.815 259.13C638.419 258.901 639.023 258.675 639.628 258.448C640.125 258.262 640.621 258.074 641.118 257.889C641.732 257.66 642.347 257.435 642.962 257.208C643.574 256.982 644.187 256.756 644.8 256.532C645.288 256.354 645.776 256.179 646.265 256.002C646.884 255.778 647.502 255.553 648.122 255.331C648.806 255.086 649.49 254.844 650.175 254.602C650.642 254.436 651.109 254.27 651.576 254.105C652.219 253.88 652.863 253.656 653.507 253.433C654.058 253.241 654.609 253.049 655.16 252.859C655.753 252.655 656.347 252.453 656.941 252.251C657.51 252.057 658.079 251.863 658.648 251.671C659.236 251.473 659.823 251.276 660.411 251.08C661.002 250.883 661.594 250.685 662.186 250.489C662.726 250.311 663.267 250.134 663.809 249.957C664.446 249.748 665.083 249.539 665.722 249.332C666.416 249.107 667.112 248.885 667.808 248.663C668.241 248.524 668.674 248.385 669.108 248.247C669.867 248.006 670.627 247.768 671.387 247.53C671.822 247.394 672.257 247.257 672.692 247.122C673.5 246.872 674.308 246.624 675.117 246.377C675.478 246.267 675.839 246.156 676.2 246.046C676.898 245.834 677.598 245.625 678.297 245.415C678.833 245.254 679.369 245.093 679.906 244.934C680.668 244.708 681.43 244.485 682.192 244.262C682.561 244.154 682.928 244.045 683.297 243.938C684.087 243.709 684.878 243.483 685.67 243.257C686.125 243.127 686.579 242.996 687.034 242.867C687.576 242.714 688.119 242.563 688.661 242.411C689.341 242.221 690.02 242.029 690.701 241.841C691.263 241.686 691.826 241.534 692.389 241.38C692.994 241.214 693.6 241.047 694.206 240.884C694.79 240.726 695.375 240.572 695.959 240.416C696.604 240.244 697.249 240.07 697.896 239.9C698.468 239.75 699.041 239.602 699.614 239.453C700.22 239.296 700.825 239.137 701.431 238.981C702.114 238.806 702.798 238.634 703.481 238.461C704 238.33 704.518 238.198 705.037 238.068C705.758 237.888 706.481 237.711 707.203 237.533C707.697 237.412 708.19 237.289 708.684 237.169C709.314 237.015 709.946 236.864 710.577 236.713C711.175 236.569 711.773 236.425 712.372 236.283C713.119 236.106 713.866 235.933 714.614 235.759C715.042 235.659 715.469 235.559 715.896 235.46C716.921 235.224 717.946 234.991 718.972 234.761C719.144 234.722 719.315 234.683 719.487 234.645C720.41 234.438 721.333 234.235 722.257 234.032C722.589 233.959 722.922 233.886 723.255 233.813C724.074 233.635 724.895 233.461 725.716 233.286C726.126 233.199 726.535 233.11 726.945 233.023C727.568 232.892 728.191 232.764 728.814 232.635C729.471 232.499 730.128 232.361 730.786 232.227C731.273 232.127 731.76 232.032 732.247 231.934C732.956 231.791 733.665 231.646 734.375 231.506C735.044 231.374 735.713 231.245 736.383 231.115C736.954 231.004 737.524 230.893 738.096 230.784C738.767 230.656 739.439 230.53 740.111 230.404C740.662 230.301 741.213 230.197 741.765 230.095C742.379 229.981 742.994 229.87 743.609 229.759C744.268 229.639 744.927 229.519 745.586 229.401C746.283 229.277 746.981 229.157 747.679 229.035C748.167 228.95 748.656 228.863 749.145 228.779C749.865 228.656 750.586 228.535 751.307 228.414C751.875 228.318 752.444 228.221 753.013 228.127C753.74 228.007 754.468 227.891 755.196 227.773C755.678 227.696 756.16 227.616 756.643 227.539C757.378 227.422 758.114 227.309 758.85 227.194C759.386 227.111 759.923 227.026 760.46 226.944C761.318 226.814 762.178 226.687 763.037 226.56C763.403 226.505 763.769 226.45 764.135 226.396C764.817 226.297 765.5 226.201 766.183 226.104C766.799 226.016 767.416 225.926 768.033 225.84C768.507 225.774 768.981 225.71 769.455 225.646C770.232 225.539 771.01 225.432 771.788 225.328C772.225 225.27 772.662 225.214 773.099 225.157C773.929 225.049 774.76 224.939 775.592 224.834C776.151 224.763 776.71 224.695 777.27 224.626C777.939 224.543 778.608 224.46 779.278 224.379C779.965 224.296 780.652 224.217 781.34 224.137C781.935 224.067 782.53 223.996 783.126 223.928C783.747 223.857 784.368 223.79 784.989 223.721C785.621 223.651 786.252 223.579 786.884 223.511C787.801 223.412 788.72 223.318 789.639 223.224C789.979 223.189 790.32 223.151 790.661 223.116C791.484 223.033 792.307 222.954 793.131 222.874C793.586 222.83 794.041 222.783 794.497 222.739C795.226 222.67 795.956 222.606 796.686 222.539C797.24 222.488 797.793 222.436 798.348 222.387C799.446 222.289 800.545 222.196 801.646 222.104C801.792 222.092 801.938 222.078 802.084 222.066C804.445 221.872 806.809 221.694 809.178 221.526C809.389 221.511 809.599 221.495 809.811 221.48C810.77 221.414 811.729 221.351 812.689 221.289C813.009 221.268 813.329 221.245 813.649 221.225C814.538 221.168 815.427 221.117 816.316 221.064C816.72 221.041 817.123 221.015 817.526 220.992C818.115 220.959 818.705 220.928 819.294 220.896C820.009 220.858 820.725 220.818 821.441 220.782C822.105 220.749 822.769 220.719 823.433 220.688C824.032 220.659 824.632 220.629 825.232 220.603C825.751 220.58 826.271 220.56 826.79 220.538C828.192 220.48 829.595 220.426 830.999 220.377C832.328 220.331 833.657 220.289 834.988 220.251C836.914 220.196 838.842 220.147 840.772 220.11C844.673 220.036 848.582 220 852.5 220C853.806 220 855.112 220.004 856.416 220.013Z" fill="black" style="fill:black;fill-opacity:1;"/>
</svg>
